<?xml version="1.0" encoding="UTF-8" standalone="no"?>
<!DOCTYPE svg PUBLIC "-//W3C//DTD SVG 1.1//EN" "http://www.w3.org/Graphics/SVG/1.1/DTD/svg11.dtd">
<svg version="1.1" xmlns="http://www.w3.org/2000/svg" xmlns:xlink="http://www.w3.org/1999/xlink" preserveAspectRatio="xMidYMid meet" viewBox="0 0 640 640" width="640" height="640"><defs><path d="M326.65 192.19C326.65 197.81 322.09 202.37 316.47 202.37C301.5 202.37 266.79 202.37 251.82 202.37C246.2 202.37 241.65 197.81 241.65 192.19C241.65 177.23 241.65 142.51 241.65 127.55C241.65 121.93 246.2 117.37 251.82 117.37C266.79 117.37 301.5 117.37 316.47 117.37C322.09 117.37 326.65 121.93 326.65 127.55C326.65 142.51 326.65 177.23 326.65 192.19Z" id="bqJoyrsF8"></path><path d="M326.65 192.19C326.65 197.81 322.09 202.37 316.47 202.37C301.5 202.37 266.79 202.37 251.82 202.37C246.2 202.37 241.65 197.81 241.65 192.19C241.65 177.23 241.65 142.51 241.65 127.55C241.65 121.93 246.2 117.37 251.82 117.37C266.79 117.37 301.5 117.37 316.47 117.37C322.09 117.37 326.65 121.93 326.65 127.55C326.65 142.51 326.65 177.23 326.65 192.19Z" id="b11scr1lvQ"></path><path d="M258.14 140.05C258.14 139.48 258.14 139.02 258.14 139.02C258.14 139.22 258.14 139.48 258.14 140.05C258.14 140.62 258.14 140.88 258.14 141.08C258.14 140.87 258.14 140.62 258.14 140.05Z" id="bmD0vZp4k"></path><path d="M254.87 142.83C254.87 137.31 259.35 132.83 264.87 132.83C270.39 132.83 274.87 137.31 274.87 142.83C274.87 148.35 270.39 152.83 264.87 152.83C259.35 152.83 254.87 148.35 254.87 142.83Z" id="ahVZwf1dH"></path><path d="M289.3 179.33C289.3 173.81 293.78 169.33 299.3 169.33C304.82 169.33 309.3 173.81 309.3 179.33C309.3 184.85 304.82 189.33 299.3 189.33C293.78 189.33 289.3 184.85 289.3 179.33Z" id="a4fCV3Yzi2"></path><path d="M398.35 218.74C398.35 225.36 392.98 230.72 386.37 230.72C368.77 230.72 327.93 230.72 310.32 230.72C303.71 230.72 298.35 225.36 298.35 218.74C298.35 201.14 298.35 160.3 298.35 142.69C298.35 136.08 303.71 130.72 310.32 130.72C327.93 130.72 368.77 130.72 386.37 130.72C392.98 130.72 398.35 136.08 398.35 142.69C398.35 160.3 398.35 201.14 398.35 218.74Z" id="aAYR6K9ee"></path><path d="M398.35 218.74C398.35 225.36 392.98 230.72 386.37 230.72C368.77 230.72 327.93 230.72 310.32 230.72C303.71 230.72 298.35 225.36 298.35 218.74C298.35 201.14 298.35 160.3 298.35 142.69C298.35 136.08 303.71 130.72 310.32 130.72C327.93 130.72 368.77 130.72 386.37 130.72C392.98 130.72 398.35 136.08 398.35 142.69C398.35 160.3 398.35 201.14 398.35 218.74Z" id="b4pKTVJ2WC"></path><path d="M302.47 171.96C302.47 171.39 302.47 170.93 302.47 170.93C302.47 171.13 302.47 171.39 302.47 171.96C302.47 172.53 302.47 172.79 302.47 172.99C302.47 172.78 302.47 172.53 302.47 171.96Z" id="aObBhtaq"></path><path d="M334.66 182.16C334.66 173.88 341.38 167.16 349.66 167.16C357.94 167.16 364.66 173.88 364.66 182.16C364.66 190.44 357.94 197.16 349.66 197.16C341.38 197.16 334.66 190.44 334.66 182.16Z" id="a7k8SEsuRX"></path></defs><g><g><g><use xlink:href="#bqJoyrsF8" opacity="1" fill="#ffffff" fill-opacity="1"></use><g><use xlink:href="#bqJoyrsF8" opacity="1" fill-opacity="0" stroke="#000000" stroke-width="1" stroke-opacity="0"></use></g></g><g><use xlink:href="#b11scr1lvQ" opacity="1" fill="#dedede" fill-opacity="1"></use><g><use xlink:href="#b11scr1lvQ" opacity="1" fill-opacity="0" stroke="#000000" stroke-width="1" stroke-opacity="0"></use></g></g><g><use xlink:href="#bmD0vZp4k" opacity="1" fill="#270e0e" fill-opacity="1"></use><g><use xlink:href="#bmD0vZp4k" opacity="1" fill-opacity="0" stroke="#000000" stroke-width="1" stroke-opacity="0"></use></g></g><g><use xlink:href="#ahVZwf1dH" opacity="1" fill="#270e0e" fill-opacity="1"></use><g><use xlink:href="#ahVZwf1dH" opacity="1" fill-opacity="0" stroke="#000000" stroke-width="1" stroke-opacity="0"></use></g></g><g><use xlink:href="#a4fCV3Yzi2" opacity="1" fill="#270e0e" fill-opacity="1"></use><g><use xlink:href="#a4fCV3Yzi2" opacity="1" fill-opacity="0" stroke="#000000" stroke-width="1" stroke-opacity="0"></use></g></g><g><use xlink:href="#aAYR6K9ee" opacity="1" fill="#ffffff" fill-opacity="1"></use><g><use xlink:href="#aAYR6K9ee" opacity="1" fill-opacity="0" stroke="#000000" stroke-width="1" stroke-opacity="0"></use></g></g><g><use xlink:href="#b4pKTVJ2WC" opacity="1" fill="#000000" fill-opacity="0"></use><g><use xlink:href="#b4pKTVJ2WC" opacity="1" fill-opacity="0" stroke="#000000" stroke-width="1" stroke-opacity="0"></use></g></g><g><use xlink:href="#aObBhtaq" opacity="1" fill="#270e0e" fill-opacity="1"></use><g><use xlink:href="#aObBhtaq" opacity="1" fill-opacity="0" stroke="#000000" stroke-width="1" stroke-opacity="0"></use></g></g><g><use xlink:href="#a7k8SEsuRX" opacity="1" fill="#270e0e" fill-opacity="1"></use><g><use xlink:href="#a7k8SEsuRX" opacity="1" fill-opacity="0" stroke="#000000" stroke-width="1" stroke-opacity="0"></use></g></g></g></g></svg>